<svg viewBox="0 0 800 600" xmlns="http://www.w3.org/2000/svg" style="font-family: 'Georgia', 'Times New Roman', serif;">
  <!-- Fond parchemin -->
  <rect width="800" height="600" fill="#f5f0eb"/>
  
  <!-- ========== DOUBLE BORDURE DÉCORATIVE ========== -->
  <rect x="8" y="8" width="784" height="584" fill="none" stroke="#2d2a26" stroke-width="1.5" opacity="0.3"/>
  <rect x="16" y="16" width="768" height="568" fill="none" stroke="#2d2a26" stroke-width="0.6" opacity="0.2"/>
  <!-- Coins décoratifs -->
  <g opacity="0.25" stroke="#2d2a26" fill="none" stroke-width="0.8">
    <path d="M8 30 Q20 20 30 8"/>
    <path d="M770 8 Q780 20 792 30"/>
    <path d="M792 570 Q780 580 770 592"/>
    <path d="M30 592 Q20 580 8 570"/>
    <!-- Fleurons coins -->
    <circle cx="20" cy="20" r="3"/>
    <circle cx="780" cy="20" r="3"/>
    <circle cx="780" cy="580" r="3"/>
    <circle cx="20" cy="580" r="3"/>
  </g>

  <!-- ========== LA MANCHE — côte ouest avec hachures ========== -->
  <!-- Ligne de côte irrégulière -->
  <path d="M120 16 Q110 40 115 65 Q105 90 112 120 Q100 145 108 175 Q115 200 105 230 Q110 260 100 290 Q108 320 102 350 Q112 380 105 410 Q98 440 108 470 Q100 500 110 530 Q105 555 108 584" 
        stroke="#2d2a26" stroke-width="2" fill="none" opacity="0.5"/>
  
  <!-- Hachures côte style gravure -->
  <g stroke="#2d2a26" stroke-width="0.5" opacity="0.2">
    <path d="M115 30 L100 33 M108 50 L92 53 M112 70 L96 73 M105 90 L88 93 M110 110 L94 113 M102 130 L86 133 M108 150 L92 153 M115 170 L98 173 M105 190 L88 193 M110 210 L94 213 M100 230 L84 233 M108 250 L92 253 M102 270 L86 273 M108 290 L92 293 M100 310 L84 313 M108 330 L92 333 M105 350 L88 353 M112 370 L96 373 M105 390 L88 393 M110 410 L94 413 M102 430 L86 433 M108 450 L92 453 M100 470 L84 473 M110 490 L94 493 M105 510 L88 513 M108 530 L92 533 M105 550 L88 553 M108 570 L92 573"/>
  </g>
  
  <!-- Deuxième rangée hachures -->
  <g stroke="#2d2a26" stroke-width="0.4" opacity="0.12">
    <path d="M98 40 L80 44 M90 80 L72 84 M95 120 L77 124 M88 160 L70 164 M92 200 L74 204 M86 240 L68 244 M90 280 L72 284 M84 320 L66 324 M90 360 L72 364 M86 400 L68 404 M92 440 L74 444 M86 480 L68 484 M90 520 L72 524 M86 560 L68 564"/>
  </g>

  <!-- Petites vagues mer -->
  <g stroke="#2d2a26" fill="none" opacity="0.15" stroke-width="0.6">
    <path d="M40 80 Q48 76 56 80 Q64 84 72 80"/>
    <path d="M30 140 Q38 136 46 140 Q54 144 62 140"/>
    <path d="M50 200 Q58 196 66 200 Q74 204 82 200"/>
    <path d="M35 270 Q43 266 51 270 Q59 274 67 270"/>
    <path d="M45 340 Q53 336 61 340 Q69 344 77 340"/>
    <path d="M30 410 Q38 406 46 410 Q54 414 62 410"/>
    <path d="M50 470 Q58 466 66 470 Q74 474 82 470"/>
    <path d="M40 530 Q48 526 56 530 Q64 534 72 530"/>
    <path d="M55 110 Q61 107 67 110"/>
    <path d="M42 310 Q48 307 54 310"/>
    <path d="M60 380 Q66 377 72 380"/>
    <path d="M38 500 Q44 497 50 500"/>
  </g>

  <!-- "La Manche" texte -->
  <text x="45" y="250" fill="#2d2a26" opacity="0.18" font-size="16" font-style="italic" letter-spacing="0.15em" transform="rotate(-85 45 250)">La Manche</text>

  <!-- ========== VOILIER ANCIEN ========== -->
  <g transform="translate(75, 170)" opacity="0.3">
    <!-- Coque -->
    <path d="M-12 2 Q-10 6 0 8 Q10 6 12 2 L10 0 L-10 0 Z" fill="none" stroke="#2d2a26" stroke-width="1"/>
    <!-- Mât -->
    <line x1="0" y1="0" x2="0" y2="-22" stroke="#2d2a26" stroke-width="0.8"/>
    <!-- Grand-voile -->
    <path d="M0 -20 Q10 -14 12 -4 L0 -2 Z" fill="#2d2a26" opacity="0.12" stroke="#2d2a26" stroke-width="0.6"/>
    <!-- Foc -->
    <path d="M0 -18 Q-8 -10 -10 -2 L0 -2 Z" fill="#2d2a26" opacity="0.08" stroke="#2d2a26" stroke-width="0.5"/>
    <!-- Fanion -->
    <path d="M0 -22 L5 -20 L0 -18" fill="#2d2a26" opacity="0.2"/>
    <!-- Vagues sous le bateau -->
    <path d="M-15 9 Q-10 7 -5 9 Q0 11 5 9 Q10 7 15 9" stroke="#2d2a26" stroke-width="0.4" fill="none" opacity="0.4"/>
  </g>

  <!-- ========== ROUTES EN POINTILLÉS ========== -->
  <!-- Route côtière N-S: Granville -> Saint-Pair -> Jullouville -> Carolles -->
  <path d="M270 120 Q265 160 275 200 Q280 250 260 310 Q255 350 280 400" 
        stroke="#2d2a26" stroke-width="1" fill="none" opacity="0.25" stroke-dasharray="8 5"/>
  <!-- Route E: Saint-Pair -> Avranches -->
  <path d="M310 215 Q380 200 440 180 Q500 160 570 130" 
        stroke="#2d2a26" stroke-width="0.8" fill="none" opacity="0.2" stroke-dasharray="7 4"/>
  <!-- Route SE: vers Mont Saint-Michel -->
  <path d="M570 140 Q580 200 590 260 Q600 320 610 380" 
        stroke="#2d2a26" stroke-width="0.8" fill="none" opacity="0.2" stroke-dasharray="7 4"/>
  <!-- Route Carolles -> Mont Saint-Michel -->
  <path d="M310 400 Q400 410 500 420 Q560 425 600 415" 
        stroke="#2d2a26" stroke-width="0.7" fill="none" opacity="0.18" stroke-dasharray="6 4"/>

  <!-- ========== GRANVILLE — remparts/haute-ville avec tour ========== -->
  <g transform="translate(260, 85)">
    <!-- Base rempart -->
    <rect x="-22" y="-10" width="44" height="22" fill="none" stroke="#2d2a26" stroke-width="1.5" opacity="0.5"/>
    <!-- Créneaux -->
    <path d="M-22 -10 L-22 -16 L-17 -16 L-17 -10 M-12 -10 L-12 -16 L-7 -16 L-7 -10 M-2 -10 L-2 -16 L3 -16 L3 -10 M8 -10 L8 -16 L13 -16 L13 -10 M18 -10 L18 -16 L22 -16 L22 -10" 
          stroke="#2d2a26" stroke-width="1" fill="none" opacity="0.45"/>
    <!-- Tour principale -->
    <rect x="-5" y="-26" width="10" height="16" fill="none" stroke="#2d2a26" stroke-width="1" opacity="0.5"/>
    <!-- Toit tour -->
    <path d="M-7 -26 L0 -35 L7 -26" stroke="#2d2a26" stroke-width="1" fill="none" opacity="0.5"/>
    <!-- Pointe flèche -->
    <line x1="0" y1="-35" x2="0" y2="-40" stroke="#2d2a26" stroke-width="0.8" opacity="0.45"/>
    <!-- Fenêtres tour -->
    <rect x="-2" y="-23" width="4" height="5" fill="none" stroke="#2d2a26" stroke-width="0.5" opacity="0.3"/>
    <!-- Porte -->
    <path d="M-3 12 L-3 5 Q0 2 3 5 L3 12" stroke="#2d2a26" stroke-width="0.7" fill="none" opacity="0.35"/>
    <!-- Pierre texture -->
    <g stroke="#2d2a26" stroke-width="0.3" opacity="0.15">
      <line x1="-20" y1="-4" x2="20" y2="-4"/>
      <line x1="-20" y1="2" x2="20" y2="2"/>
      <line x1="-20" y1="8" x2="20" y2="8"/>
    </g>
    <!-- Nom -->
    <text x="0" y="30" text-anchor="middle" fill="#2d2a26" opacity="0.6" font-size="15" font-style="italic" letter-spacing="0.05em">Granville</text>
  </g>

  <!-- ========== SAINT-PAIR-SUR-MER — église + boutique ========== -->
  <!-- Église détaillée -->
  <g transform="translate(250, 215)">
    <!-- Nef -->
    <rect x="-8" y="-8" width="16" height="20" fill="none" stroke="#2d2a26" stroke-width="1.2" opacity="0.55"/>
    <!-- Toit -->
    <path d="M-10 -8 L0 -20 L10 -8" stroke="#2d2a26" stroke-width="1" fill="none" opacity="0.55"/>
    <!-- Clocher -->
    <rect x="-3" y="-28" width="6" height="10" fill="none" stroke="#2d2a26" stroke-width="0.8" opacity="0.5"/>
    <!-- Flèche clocher -->
    <path d="M-4 -28 L0 -36 L4 -28" stroke="#2d2a26" stroke-width="0.8" fill="none" opacity="0.5"/>
    <!-- Croix -->
    <line x1="0" y1="-36" x2="0" y2="-42" stroke="#2d2a26" stroke-width="0.8" opacity="0.5"/>
    <line x1="-2.5" y1="-39" x2="2.5" y2="-39" stroke="#2d2a26" stroke-width="0.8" opacity="0.5"/>
    <!-- Rosace -->
    <circle cx="0" cy="-12" r="3" fill="none" stroke="#2d2a26" stroke-width="0.6" opacity="0.35"/>
    <circle cx="0" cy="-12" r="1" fill="none" stroke="#2d2a26" stroke-width="0.4" opacity="0.25"/>
    <!-- Porte -->
    <path d="M-3 12 L-3 5 Q0 2 3 5 L3 12" stroke="#2d2a26" stroke-width="0.6" fill="none" opacity="0.35"/>
    <!-- Fenêtres clocher -->
    <path d="M-1 -25 Q0 -26 1 -25 L1 -22 L-1 -22 Z" fill="none" stroke="#2d2a26" stroke-width="0.4" opacity="0.3"/>
    <text x="-4" y="24" fill="#2d2a26" opacity="0.3" font-size="8" font-style="italic">Église</text>
  </g>

  <!-- Pin doré boutique Anne Freret -->
  <g transform="translate(330, 200)">
    <!-- Pin marker doré -->
    <path d="M0 10 Q-12 -2 -12 -10 Q-12 -22 0 -22 Q12 -22 12 -10 Q12 -2 0 10 Z" 
          fill="#c4a47a" opacity="0.7" stroke="#c4a47a" stroke-width="1.5"/>
    <!-- Inner circle -->
    <circle cx="0" cy="-10" r="5" fill="#f5f0eb" opacity="0.8"/>
    <!-- Fleur inside -->
    <g transform="translate(0, -10)" stroke="#c4a47a" fill="none" stroke-width="0.8" opacity="0.8">
      <circle cx="0" cy="-2" r="1.5"/>
      <circle cx="2" cy="0" r="1.5"/>
      <circle cx="-2" cy="0" r="1.5"/>
      <circle cx="0" cy="2" r="1.5"/>
      <circle cx="0" cy="0" r="1" fill="#c4a47a"/>
    </g>
    <!-- Rayons dorés -->
    <g stroke="#c4a47a" stroke-width="0.5" opacity="0.3">
      <line x1="-16" y1="-10" x2="-20" y2="-10"/>
      <line x1="16" y1="-10" x2="20" y2="-10"/>
      <line x1="0" y1="-26" x2="0" y2="-30"/>
      <line x1="-11" y1="-21" x2="-14" y2="-24"/>
      <line x1="11" y1="-21" x2="14" y2="-24"/>
    </g>
  </g>
  
  <!-- Nom boutique -->
  <text x="330" y="232" text-anchor="middle" fill="#2d2a26" font-size="14" font-weight="500" font-style="italic" opacity="0.8">Anne Freret</text>
  <text x="330" y="246" text-anchor="middle" fill="#2d2a26" opacity="0.4" font-size="9" letter-spacing="0.1em">— Fleuriste —</text>
  <text x="330" y="260" text-anchor="middle" fill="#2d2a26" opacity="0.35" font-size="8">39 Place du Général de Gaulle</text>

  <!-- Nom de ville -->
  <text x="300" y="290" text-anchor="middle" fill="#2d2a26" opacity="0.55" font-size="14" font-style="italic" letter-spacing="0.08em">Saint-Pair-sur-Mer</text>
  <!-- Filet sous le nom -->
  <line x1="220" y1="295" x2="380" y2="295" stroke="#2d2a26" stroke-width="0.4" opacity="0.15"/>

  <!-- ========== JULLOUVILLE — maison normande ========== -->
  <g transform="translate(220, 355)">
    <!-- Maison corps -->
    <rect x="-10" y="-6" width="20" height="14" fill="none" stroke="#2d2a26" stroke-width="1" opacity="0.4"/>
    <!-- Toit normand (pentu) -->
    <path d="M-13 -6 L0 -18 L13 -6" stroke="#2d2a26" stroke-width="1" fill="none" opacity="0.4"/>
    <!-- Colombages -->
    <line x1="0" y1="-6" x2="0" y2="8" stroke="#2d2a26" stroke-width="0.5" opacity="0.25"/>
    <line x1="-10" y1="1" x2="10" y2="1" stroke="#2d2a26" stroke-width="0.5" opacity="0.25"/>
    <!-- Cheminée -->
    <rect x="5" y="-16" width="3" height="6" fill="none" stroke="#2d2a26" stroke-width="0.5" opacity="0.3"/>
    <!-- Porte -->
    <rect x="-3" y="2" width="6" height="6" fill="none" stroke="#2d2a26" stroke-width="0.4" opacity="0.25"/>
    <!-- Fenêtres -->
    <rect x="-8" y="-4" width="4" height="3" fill="none" stroke="#2d2a26" stroke-width="0.4" opacity="0.2"/>
    <rect x="4" y="-4" width="4" height="3" fill="none" stroke="#2d2a26" stroke-width="0.4" opacity="0.2"/>
    <!-- Nom -->
    <text x="0" y="24" text-anchor="middle" fill="#2d2a26" opacity="0.45" font-size="12" font-style="italic">Jullouville</text>
  </g>

  <!-- ========== CAROLLES — falaises ========== -->
  <g transform="translate(295, 410)">
    <!-- Falaises profil -->
    <path d="M-20 8 L-18 -4 L-14 -10 L-8 -6 L-4 -14 L0 -8 L6 -16 L10 -10 L14 -6 L18 -12 L20 -2 L20 8 Z" 
          fill="none" stroke="#2d2a26" stroke-width="1.2" opacity="0.4"/>
    <!-- Stries falaise -->
    <g stroke="#2d2a26" stroke-width="0.3" opacity="0.2">
      <line x1="-16" y1="-2" x2="-14" y2="6"/>
      <line x1="-10" y1="-4" x2="-8" y2="6"/>
      <line x1="-4" y1="-10" x2="-2" y2="6"/>
      <line x1="2" y1="-6" x2="4" y2="6"/>
      <line x1="8" y1="-8" x2="10" y2="6"/>
      <line x1="14" y1="-4" x2="16" y2="6"/>
    </g>
    <!-- Vagues au pied -->
    <path d="M-22 10 Q-15 8 -8 10 Q0 12 8 10 Q16 8 22 10" stroke="#2d2a26" stroke-width="0.5" fill="none" opacity="0.2"/>
    <!-- Nom -->
    <text x="0" y="24" text-anchor="middle" fill="#2d2a26" opacity="0.45" font-size="12" font-style="italic">Carolles</text>
  </g>

  <!-- ========== AVRANCHES — cathédrale/église ========== -->
  <g transform="translate(570, 115)">
    <!-- Cathédrale nef -->
    <rect x="-12" y="-8" width="24" height="18" fill="none" stroke="#2d2a26" stroke-width="1.2" opacity="0.5"/>
    <!-- Toit principal -->
    <path d="M-14 -8 L0 -22 L14 -8" stroke="#2d2a26" stroke-width="1" fill="none" opacity="0.5"/>
    <!-- Tour gauche -->
    <rect x="-14" y="-18" width="7" height="10" fill="none" stroke="#2d2a26" stroke-width="0.8" opacity="0.4"/>
    <path d="M-15 -18 L-10.5 -24 L-6 -18" stroke="#2d2a26" stroke-width="0.7" fill="none" opacity="0.4"/>
    <!-- Tour droite -->
    <rect x="7" y="-18" width="7" height="10" fill="none" stroke="#2d2a26" stroke-width="0.8" opacity="0.4"/>
    <path d="M6 -18 L10.5 -24 L15 -18" stroke="#2d2a26" stroke-width="0.7" fill="none" opacity="0.4"/>
    <!-- Croix centrale -->
    <line x1="0" y1="-22" x2="0" y2="-30" stroke="#2d2a26" stroke-width="0.8" opacity="0.5"/>
    <line x1="-3" y1="-27" x2="3" y2="-27" stroke="#2d2a26" stroke-width="0.8" opacity="0.5"/>
    <!-- Rosace -->
    <circle cx="0" cy="-14" r="3.5" fill="none" stroke="#2d2a26" stroke-width="0.6" opacity="0.3"/>
    <!-- Porte -->
    <path d="M-4 10 L-4 2 Q0 -1 4 2 L4 10" stroke="#2d2a26" stroke-width="0.6" fill="none" opacity="0.3"/>
    <!-- Contreforts -->
    <line x1="-14" y1="10" x2="-18" y2="10" stroke="#2d2a26" stroke-width="0.7" opacity="0.3"/>
    <line x1="-18" y1="10" x2="-14" y2="-5" stroke="#2d2a26" stroke-width="0.5" opacity="0.25"/>
    <line x1="14" y1="10" x2="18" y2="10" stroke="#2d2a26" stroke-width="0.7" opacity="0.3"/>
    <line x1="18" y1="10" x2="14" y2="-5" stroke="#2d2a26" stroke-width="0.5" opacity="0.25"/>
    <!-- Nom -->
    <text x="0" y="28" text-anchor="middle" fill="#2d2a26" opacity="0.55" font-size="14" font-style="italic">Avranches</text>
  </g>

  <!-- ========== MONT SAINT-MICHEL — ILLUSTRATION TRÈS DÉTAILLÉE ========== -->
  <g transform="translate(600, 430)">
    <!-- Reflets dans l'eau -->
    <g opacity="0.1" stroke="#2d2a26" fill="none" stroke-width="0.5">
      <path d="M-50 35 Q-35 33 -20 35 Q-5 37 10 35 Q25 33 40 35 Q55 37 60 35"/>
      <path d="M-45 40 Q-30 38 -15 40 Q0 42 15 40 Q30 38 45 40 Q55 42 60 40"/>
      <path d="M-40 45 Q-25 43 -10 45 Q5 47 20 45 Q35 43 50 45"/>
      <path d="M-35 50 Q-20 48 -5 50 Q10 52 25 50 Q40 48 50 50"/>
    </g>
    
    <!-- Île/rocher — ombre base -->
    <ellipse cx="0" cy="28" rx="50" ry="12" fill="#2d2a26" opacity="0.06"/>
    
    <!-- Rocher/île forme principale -->
    <path d="M-45 25 Q-42 18 -38 12 Q-32 4 -25 -5 Q-18 -15 -12 -28 Q-8 -38 -5 -50 Q-2 -60 0 -70 Q2 -60 5 -50 Q8 -38 12 -28 Q18 -15 25 -5 Q32 4 38 12 Q42 18 45 25 Q30 30 0 30 Q-30 30 -45 25 Z" 
          fill="#2d2a26" opacity="0.07" stroke="#2d2a26" stroke-width="1.5" opacity="0.5"/>
    
    <!-- Remparts bas du mont -->
    <path d="M-40 22 Q-35 18 -28 15 Q-22 13 -15 12" stroke="#2d2a26" stroke-width="1.2" fill="none" opacity="0.45"/>
    <path d="M15 12 Q22 13 28 15 Q35 18 40 22" stroke="#2d2a26" stroke-width="1.2" fill="none" opacity="0.45"/>
    <!-- Créneaux remparts -->
    <g stroke="#2d2a26" stroke-width="0.6" fill="none" opacity="0.35">
      <path d="M-38 20 L-38 17 L-35 17 L-35 20"/>
      <path d="M-33 18 L-33 15 L-30 15 L-30 18"/>
      <path d="M-28 16 L-28 13 L-25 13 L-25 16"/>
      <path d="M30 18 L30 15 L33 15 L33 18"/>
      <path d="M35 20 L35 17 L38 17 L38 20"/>
      <path d="M25 16 L25 13 L28 13 L28 16"/>
    </g>
    
    <!-- Maisons basses (niveau 1 — base) -->
    <g stroke="#2d2a26" fill="none" opacity="0.4">
      <!-- Maison 1 gauche -->
      <rect x="-30" y="8" width="8" height="10" stroke-width="0.8"/>
      <path d="M-31 8 L-26 3 L-21 8" stroke-width="0.7"/>
      <rect x="-28" y="11" width="2" height="2" stroke-width="0.3" opacity="0.3"/>
      <!-- Maison 2 -->
      <rect x="-20" y="5" width="7" height="12" stroke-width="0.8"/>
      <path d="M-21 5 L-16.5 0 L-12 5" stroke-width="0.7"/>
      <rect x="-18" y="8" width="2" height="2" stroke-width="0.3" opacity="0.3"/>
      <!-- Maison 3 centre-gauche -->
      <rect x="-10" y="2" width="6" height="14" stroke-width="0.8"/>
      <path d="M-11 2 L-7 -3 L-3 2" stroke-width="0.7"/>
      <!-- Maison 4 centre -->
      <rect x="-2" y="0" width="7" height="14" stroke-width="0.8"/>
      <path d="M-3 0 L1.5 -5 L6 0" stroke-width="0.7"/>
      <rect x="0" y="3" width="2" height="2" stroke-width="0.3" opacity="0.3"/>
      <!-- Maison 5 centre-droite -->
      <rect x="7" y="2" width="6" height="14" stroke-width="0.8"/>
      <path d="M6 2 L10 -2 L14 2" stroke-width="0.7"/>
      <!-- Maison 6 droite -->
      <rect x="15" y="5" width="7" height="12" stroke-width="0.8"/>
      <path d="M14 5 L18.5 0 L23 5" stroke-width="0.7"/>
      <rect x="17" y="8" width="2" height="2" stroke-width="0.3" opacity="0.3"/>
      <!-- Maison 7 droite -->
      <rect x="24" y="8" width="8" height="10" stroke-width="0.8"/>
      <path d="M23 8 L28 3 L33 8" stroke-width="0.7"/>
    </g>
    
    <!-- Maisons niveau 2 (intermédiaire) -->
    <g stroke="#2d2a26" fill="none" opacity="0.45">
      <rect x="-15" y="-12" width="6" height="10" stroke-width="0.7"/>
      <path d="M-16 -12 L-12 -17 L-8 -12" stroke-width="0.6"/>
      <rect x="-7" y="-15" width="5" height="11" stroke-width="0.7"/>
      <path d="M-8 -15 L-4.5 -20 L-1 -15" stroke-width="0.6"/>
      <rect x="0" y="-14" width="6" height="10" stroke-width="0.7"/>
      <path d="M-1 -14 L3 -19 L7 -14" stroke-width="0.6"/>
      <rect x="8" y="-12" width="6" height="10" stroke-width="0.7"/>
      <path d="M7 -12 L11 -17 L15 -12" stroke-width="0.6"/>
    </g>
    
    <!-- Bâtiments niveau 3 (haut — église/grand bâtiment) -->
    <g stroke="#2d2a26" fill="none" opacity="0.5">
      <rect x="-8" y="-30" width="6" height="12" stroke-width="0.7"/>
      <path d="M-9 -30 L-5 -36 L-1 -30" stroke-width="0.7"/>
      <rect x="0" y="-28" width="6" height="10" stroke-width="0.7"/>
      <path d="M-1 -28 L3 -34 L7 -28" stroke-width="0.7"/>
    </g>
    
    <!-- Terrasses/murs entre niveaux -->
    <g stroke="#2d2a26" stroke-width="0.5" opacity="0.25">
      <line x1="-20" y1="-2" x2="22" y2="-2"/>
      <line x1="-16" y1="-12" x2="16" y2="-12"/>
      <line x1="-10" y1="-25" x2="8" y2="-25"/>
    </g>
    
    <!-- ABBAYE AU SOMMET — très détaillée -->
    <g stroke="#2d2a26" fill="none">
      <!-- Grande nef abbaye -->
      <rect x="-10" y="-58" width="20" height="16" stroke-width="1.2" opacity="0.55"/>
      <!-- Contreforts abbaye -->
      <line x1="-10" y1="-42" x2="-14" y2="-42" stroke-width="0.8" opacity="0.35"/>
      <line x1="-14" y1="-42" x2="-10" y2="-55" stroke-width="0.6" opacity="0.3"/>
      <line x1="10" y1="-42" x2="14" y2="-42" stroke-width="0.8" opacity="0.35"/>
      <line x1="14" y1="-42" x2="10" y2="-55" stroke-width="0.6" opacity="0.3"/>
      <!-- Toit abbaye -->
      <path d="M-12 -58 L0 -72 L12 -58" stroke-width="1.2" opacity="0.55"/>
      <!-- Fenêtres abbaye (gothiques) -->
      <g stroke-width="0.5" opacity="0.35">
        <path d="M-6 -55 Q-6 -57 -4.5 -57 Q-3 -57 -3 -55 L-3 -50 L-6 -50 Z"/>
        <path d="M-1 -55 Q-1 -57 0.5 -57 Q2 -57 2 -55 L2 -50 L-1 -50 Z"/>
        <path d="M4 -55 Q4 -57 5.5 -57 Q7 -57 7 -55 L7 -50 L4 -50 Z"/>
      </g>
      <!-- Cloître/bâtiment adjacent -->
      <rect x="-16" y="-50" width="8" height="10" stroke-width="0.7" opacity="0.4"/>
      <path d="M-17 -50 L-12 -55 L-7 -50" stroke-width="0.6" opacity="0.4"/>
      
      <!-- FLÈCHE PRINCIPALE — point culminant -->
      <line x1="0" y1="-72" x2="0" y2="-95" stroke-width="1" opacity="0.6"/>
      <!-- Structure flèche -->
      <path d="M-3 -72 L0 -85 L3 -72" stroke-width="0.7" opacity="0.45" fill="#2d2a26" fill-opacity="0.05"/>
      <path d="M-1.5 -85 L0 -93 L1.5 -85" stroke-width="0.5" opacity="0.4"/>
      
      <!-- CROIX AU SOMMET -->
      <line x1="0" y1="-95" x2="0" y2="-102" stroke-width="1" opacity="0.6"/>
      <line x1="-3.5" y1="-99" x2="3.5" y2="-99" stroke-width="1" opacity="0.6"/>
      
      <!-- Archange (silhouette simplifiée) -->
      <circle cx="0" cy="-104" r="1.5" stroke-width="0.6" opacity="0.4"/>
    </g>
    
    <!-- Escaliers/chemin montant -->
    <g stroke="#2d2a26" stroke-width="0.4" opacity="0.2">
      <line x1="-35" y1="22" x2="-28" y2="18"/>
      <line x1="-28" y1="18" x2="-22" y2="14"/>
      <line x1="-22" y1="14" x2="-18" y2="8"/>
      <line x1="-18" y1="8" x2="-15" y2="2"/>
    </g>
    
    <!-- Texture rocher -->
    <g stroke="#2d2a26" stroke-width="0.3" opacity="0.12">
      <path d="M-35 20 Q-30 18 -25 20"/>
      <path d="M25 20 Q30 18 35 20"/>
      <path d="M-30 14 Q-25 12 -20 14"/>
      <path d="M20 14 Q25 12 30 14"/>
    </g>
    
    <!-- Nom Mont Saint-Michel -->
    <text x="0" y="52" text-anchor="middle" fill="#2d2a26" opacity="0.65" font-size="14" font-style="italic" font-weight="500" letter-spacing="0.05em">Mont Saint-Michel</text>
    <text x="0" y="66" text-anchor="middle" fill="#2d2a26" opacity="0.35" font-size="10">~ 25 km</text>
  </g>

  <!-- ========== ROSE DES VENTS ORNÉE ========== -->
  <g transform="translate(710, 520)">
    <!-- Cercle extérieur orné -->
    <circle cx="0" cy="0" r="38" fill="none" stroke="#2d2a26" stroke-width="0.6" opacity="0.2"/>
    <circle cx="0" cy="0" r="35" fill="none" stroke="#2d2a26" stroke-width="0.3" opacity="0.15"/>
    <!-- Graduations -->
    <g stroke="#2d2a26" stroke-width="0.3" opacity="0.15">
      <line x1="0" y1="-38" x2="0" y2="-35"/>
      <line x1="0" y1="38" x2="0" y2="35"/>
      <line x1="-38" y1="0" x2="-35" y2="0"/>
      <line x1="38" y1="0" x2="35" y2="0"/>
      <line x1="-27" y1="-27" x2="-25" y2="-25"/>
      <line x1="27" y1="-27" x2="25" y2="-25"/>
      <line x1="-27" y1="27" x2="-25" y2="25"/>
      <line x1="27" y1="27" x2="25" y2="25"/>
    </g>
    
    <!-- Points cardinaux — pointes sombres et claires alternées -->
    <!-- Nord -->
    <path d="M0 -30 L4 -8 L0 -3 Z" fill="#2d2a26" opacity="0.4"/>
    <path d="M0 -30 L-4 -8 L0 -3 Z" fill="#2d2a26" opacity="0.15"/>
    <!-- Sud -->
    <path d="M0 30 L4 8 L0 3 Z" fill="#2d2a26" opacity="0.15"/>
    <path d="M0 30 L-4 8 L0 3 Z" fill="#2d2a26" opacity="0.35"/>
    <!-- Est -->
    <path d="M30 0 L8 -4 L3 0 Z" fill="#2d2a26" opacity="0.15"/>
    <path d="M30 0 L8 4 L3 0 Z" fill="#2d2a26" opacity="0.35"/>
    <!-- Ouest -->
    <path d="M-30 0 L-8 -4 L-3 0 Z" fill="#2d2a26" opacity="0.35"/>
    <path d="M-30 0 L-8 4 L-3 0 Z" fill="#2d2a26" opacity="0.15"/>
    
    <!-- Pointes diagonales (plus courtes) -->
    <!-- NE -->
    <path d="M18 -18 L5 -3 L3 -5 Z" fill="#2d2a26" opacity="0.25"/>
    <!-- NW -->
    <path d="M-18 -18 L-5 -3 L-3 -5 Z" fill="#2d2a26" opacity="0.2"/>
    <!-- SE -->
    <path d="M18 18 L5 3 L3 5 Z" fill="#2d2a26" opacity="0.2"/>
    <!-- SW -->
    <path d="M-18 18 L-5 3 L-3 5 Z" fill="#2d2a26" opacity="0.25"/>
    
    <!-- Centre -->
    <circle cx="0" cy="0" r="3" fill="#2d2a26" opacity="0.3"/>
    <circle cx="0" cy="0" r="1.5" fill="#f5f0eb" opacity="0.8"/>
    
    <!-- Labels cardinaux -->
    <text x="0" y="-40" text-anchor="middle" fill="#2d2a26" opacity="0.5" font-size="11" font-weight="600">N</text>
    <text x="0" y="48" text-anchor="middle" fill="#2d2a26" opacity="0.3" font-size="9">S</text>
    <text x="-42" y="4" text-anchor="middle" fill="#2d2a26" opacity="0.3" font-size="9">O</text>
    <text x="42" y="4" text-anchor="middle" fill="#2d2a26" opacity="0.3" font-size="9">E</text>
    
    <!-- Fleur de lys au Nord (ornement) -->
    <g transform="translate(0, -33)" fill="#2d2a26" opacity="0.3">
      <path d="M0 -4 Q-1 -2 -2 0 Q-1 -1 0 0 Q1 -1 2 0 Q1 -2 0 -4 Z" stroke-width="0.3"/>
    </g>
  </g>

  <!-- ========== TITRE CARTOUCHE ========== -->
  <g transform="translate(400, 555)">
    <text x="0" y="0" text-anchor="middle" fill="#2d2a26" opacity="0.15" font-size="10" letter-spacing="0.3em" font-style="italic">BAIE DU MONT SAINT-MICHEL — NORMANDIE</text>
  </g>
</svg>