<svg xmlns="http://www.w3.org/2000/svg" viewBox="0 0 80 80" fill="none" stroke="#c4a47a" stroke-width="1.2" stroke-linecap="round" stroke-linejoin="round">
  <!-- Vase -->
  <ellipse cx="40" cy="72" rx="12" ry="3"/>
  <path d="M28 72V58c0-4 5-8 12-8s12 4 12 8v14"/>
  <!-- Ribbon / bow on vase -->
  <path d="M34 54c3 3 9 3 12 0"/>
  <path d="M34 54l-4 3"/>
  <path d="M46 54l4 3"/>
  <!-- Bouquet in vase -->
  <circle cx="40" cy="36" r="7" fill="#c4a47a" fill-opacity="0.15"/>
  <circle cx="30" cy="38" r="6" fill="#c4a47a" fill-opacity="0.1"/>
  <circle cx="50" cy="38" r="6" fill="#c4a47a" fill-opacity="0.1"/>
  <circle cx="34" cy="30" r="5" fill="#c4a47a" fill-opacity="0.1"/>
  <circle cx="46" cy="30" r="5" fill="#c4a47a" fill-opacity="0.1"/>
  <circle cx="40" cy="26" r="5" fill="#c4a47a" fill-opacity="0.12"/>
  <!-- Hearts / sparkle -->
  <path d="M18 22c0-3 2-5 4-5s4 2 4 5c0 4-4 6-4 6s-4-2-4-6z" fill="#c4a47a" fill-opacity="0.2" stroke="none"/>
  <path d="M56 18c0-3 2-5 4-5s4 2 4 5c0 4-4 6-4 6s-4-2-4-6z" fill="#c4a47a" fill-opacity="0.2" stroke="none"/>
</svg>
