<svg xmlns="http://www.w3.org/2000/svg" viewBox="0 0 80 80" fill="none" stroke="#c4a47a" stroke-width="1.2" stroke-linecap="round" stroke-linejoin="round">
  <!-- Box base -->
  <rect x="14" y="42" width="52" height="28" rx="3"/>
  <line x1="40" y1="42" x2="40" y2="70"/>
  <!-- Lid floating up -->
  <rect x="10" y="28" width="60" height="10" rx="3" stroke-dasharray="3 2"/>
  <!-- Ribbon -->
  <path d="M40 28c0 0-8-12-16-12c-5 0-7 4-5 7s8 4 13 4"/>
  <path d="M40 28c0 0 8-12 16-12c5 0 7 4 5 7s-8 4-13 4"/>
  <!-- Sparkles -->
  <line x1="28" y1="16" x2="28" y2="10"/>
  <line x1="40" y1="14" x2="40" y2="6"/>
  <line x1="52" y1="16" x2="52" y2="10"/>
</svg>
